<svg xmlns="http://www.w3.org/2000/svg" xmlns:xlink="http://www.w3.org/1999/xlink" width="500" zoomAndPan="magnify" viewBox="0 0 375 374.999991" height="500" preserveAspectRatio="xMidYMid meet" version="1.0"><defs><g/><clipPath id="17632470ae"><path d="M 203 165 L 249.515625 165 L 249.515625 211.472656 L 203 211.472656 Z M 203 165 " clip-rule="nonzero"/></clipPath><clipPath id="e9609a7e1f"><path d="M 158.015625 119.972656 L 242 119.972656 L 242 204 L 158.015625 204 Z M 158.015625 119.972656 " clip-rule="nonzero"/></clipPath></defs><g fill="#000000" fill-opacity="1"><g transform="translate(55.543693, 183.153715)"><g><path d="M 22.09375 1 C 31.1875 1 38.1875 -3.921875 38.1875 -12.265625 C 38.1875 -27.765625 12.84375 -24.09375 12.84375 -33.015625 C 12.84375 -36.4375 16.015625 -38.359375 20.765625 -38.359375 C 24.4375 -38.359375 27.1875 -37.1875 30.359375 -35.78125 C 31.109375 -35.4375 31.859375 -35.28125 32.609375 -35.28125 C 34.28125 -35.28125 36.28125 -36.6875 36.28125 -38.859375 C 36.28125 -42.359375 28.109375 -45.28125 20.515625 -45.28125 C 12.171875 -45.28125 5.34375 -40.28125 5.34375 -32.4375 C 5.34375 -17.015625 30.765625 -21.9375 30.765625 -11.671875 C 30.765625 -7.84375 27.359375 -6 22.265625 -6 C 17.59375 -6 14.171875 -7.5 10.59375 -9.421875 C 9.59375 -9.921875 8.671875 -10.171875 7.75 -10.171875 C 6.09375 -10.171875 4.34375 -8.75 4.34375 -6.59375 C 4.34375 -1.921875 15.671875 1 22.09375 1 Z M 22.09375 1 "/></g></g></g><g fill="#000000" fill-opacity="1"><g transform="translate(102.903545, 183.153715)"><g><path d="M 10.75 0.5 C 12.84375 0.5 14.515625 -1.171875 14.515625 -3.171875 L 14.515625 -31.359375 C 20.015625 -35.4375 24.265625 -38.28125 28.765625 -38.28125 C 34.109375 -38.28125 35.6875 -33.4375 35.6875 -29.015625 L 35.6875 -3.171875 C 35.6875 -1.171875 37.359375 0.5 39.359375 0.5 C 41.4375 0.5 43.109375 -1.171875 43.109375 -3.171875 L 43.109375 -31.015625 C 43.109375 -38.359375 39.609375 -45.28125 30.4375 -45.28125 C 24.765625 -45.28125 21.015625 -42.703125 14.421875 -37.9375 L 14.421875 -61.375 C 14.421875 -63.375 12.765625 -65.046875 10.75 -65.046875 C 8.75 -65.046875 7.09375 -63.375 7.09375 -61.375 L 7.09375 -3.171875 C 7.09375 -1.171875 8.75 0.5 10.75 0.5 Z M 10.75 0.5 "/></g></g></g><g fill="#000000" fill-opacity="1"><g transform="translate(157.860093, 183.153715)"><g/></g></g><g fill="#000000" fill-opacity="1"><g transform="translate(190.795377, 183.153715)"><g/></g></g><g fill="#000000" fill-opacity="1"><g transform="translate(223.730661, 183.153715)"><g/></g></g><g fill="#000000" fill-opacity="1"><g transform="translate(256.67259, 183.153715)"><g><path d="M 42.78125 -21.84375 C 42.703125 -13.765625 37.03125 -6 28.4375 -6 C 19.9375 -6 13.84375 -13.515625 13.84375 -22.1875 C 13.84375 -30.4375 19.265625 -38.28125 28.359375 -38.28125 C 37.53125 -38.28125 42.78125 -30.265625 42.78125 -21.84375 Z M 13.921875 14.59375 L 13.921875 -7 C 17.84375 -1.828125 22.9375 1 29.1875 1 C 40.609375 1 50.28125 -8.671875 50.28125 -21.6875 C 50.28125 -33.4375 42.28125 -45.28125 29.359375 -45.28125 C 22.84375 -45.28125 17.671875 -42.28125 13.765625 -37.1875 L 13.421875 -41.53125 C 13.265625 -43.203125 12.09375 -44.78125 10.171875 -44.78125 C 8 -44.78125 6.5 -43.109375 6.5 -41.28125 L 6.5 14.59375 C 6.5 16.671875 8.171875 18.34375 10.171875 18.34375 C 12.265625 18.34375 13.921875 16.671875 13.921875 14.59375 Z M 13.921875 14.59375 "/></g></g></g><g clip-path="url(#17632470ae)"><path fill="#00abff" d="M 249.316406 183.488281 C 249.316406 184.363281 248.738281 185.117188 247.945312 185.375 L 229.46875 191.429688 L 223.414062 209.90625 C 223.152344 210.699219 222.398438 211.273438 221.527344 211.273438 C 220.675781 211.273438 219.960938 210.738281 219.683594 210.003906 L 203.804688 168.324219 C 203.703125 168.105469 203.664062 167.867188 203.664062 167.609375 C 203.664062 166.519531 204.558594 165.625 205.648438 165.625 C 205.910156 165.625 206.144531 165.664062 206.363281 165.765625 L 248.046875 181.644531 C 248.777344 181.917969 249.316406 182.632812 249.316406 183.488281 Z M 249.316406 183.488281 " fill-opacity="1" fill-rule="nonzero"/></g><g clip-path="url(#e9609a7e1f)"><path fill="#000000" d="M 199.859375 203.667969 C 176.789062 203.667969 158.015625 184.894531 158.015625 161.820312 C 158.015625 138.746094 176.789062 119.972656 199.859375 119.972656 C 222.933594 119.972656 241.707031 138.746094 241.707031 161.820312 C 241.707031 163.683594 241.585938 165.519531 241.339844 167.269531 C 241.058594 169.347656 239.128906 170.796875 237.058594 170.515625 C 234.972656 170.230469 233.519531 168.308594 233.808594 166.230469 C 234.003906 164.820312 234.097656 163.339844 234.097656 161.820312 C 234.097656 142.945312 218.742188 127.582031 199.859375 127.582031 C 180.980469 127.582031 165.621094 142.945312 165.621094 161.820312 C 165.621094 180.695312 180.980469 196.058594 199.859375 196.058594 C 201.367188 196.058594 202.851562 195.960938 204.273438 195.765625 C 206.347656 195.464844 208.273438 196.9375 208.554688 199.019531 C 208.839844 201.097656 207.382812 203.015625 205.300781 203.300781 C 203.539062 203.542969 201.707031 203.667969 199.859375 203.667969 Z M 199.859375 203.667969 " fill-opacity="1" fill-rule="nonzero"/></g><path fill="#000000" d="M 198.054688 184.589844 C 197.933594 184.589844 197.816406 184.585938 197.695312 184.574219 C 185.886719 183.476562 176.976562 173.691406 176.976562 161.816406 C 176.976562 149.203125 187.238281 138.9375 199.855469 138.9375 C 211.769531 138.9375 221.554688 147.867188 222.613281 159.703125 C 222.800781 161.796875 221.257812 163.644531 219.164062 163.832031 C 217.003906 163.988281 215.222656 162.46875 215.035156 160.382812 C 214.328125 152.492188 207.804688 146.542969 199.855469 146.542969 C 191.4375 146.542969 184.585938 153.390625 184.585938 161.8125 C 184.585938 169.738281 190.527344 176.261719 198.402344 176.996094 C 200.496094 177.1875 202.03125 179.042969 201.839844 181.132812 C 201.65625 183.109375 199.996094 184.589844 198.054688 184.589844 Z M 198.054688 184.589844 " fill-opacity="1" fill-rule="nonzero"/></svg>